HIERARCHY
ROOT hip
{
  OFFSET 0 0 0
  CHANNELS 6 Xposition Yposition Zposition Zrotation Yrotation Xrotation
  JOINT abdomen
  {
    OFFSET 0 20.6881 -0.73152
    CHANNELS 3 Zrotation Xrotation Yrotation
    JOINT chest
    {
      OFFSET 0 11.7043 -0.48768
      CHANNELS 3 Zrotation Xrotation Yrotation
      JOINT neck
      {
        OFFSET 0 22.1894 -2.19456
        CHANNELS 3 Zrotation Xrotation Yrotation
        JOINT head
        {
          OFFSET -0.24384 7.07133 1.2192
          CHANNELS 3 Zrotation Xrotation Yrotation
          JOINT leftEye
          {
            OFFSET 4.14528 8.04674 8.04672
            CHANNELS 3 Zrotation Xrotation Yrotation
            End Site
            {
              OFFSET 1 0 0
            }
          }
          JOINT rightEye
          {
            OFFSET -3.6576 8.04674 8.04672
            CHANNELS 3 Zrotation Xrotation Yrotation
            End Site
            {
              OFFSET 1 0 0
            }
          }
        }
      }
      JOINT rCollar
      {
        OFFSET -2.68224 19.2634 -4.8768
        CHANNELS 3 Zrotation Xrotation Yrotation
        JOINT rShldr
        {
          OFFSET -8.77824 -1.95073 1.46304
          CHANNELS 3 Zrotation Xrotation Yrotation
          JOINT rForeArm
          {
            OFFSET -28.1742 -1.7115 0.48768
            CHANNELS 3 Zrotation Xrotation Yrotation
            JOINT rHand
            {
              OFFSET -22.5879 0.773209 7.07136
              CHANNELS 3 Zrotation Xrotation Yrotation
              JOINT rThumb1
              {
                OFFSET -1.2192 -0.487915 3.41376
                CHANNELS 3 Zrotation Xrotation Yrotation
                JOINT rThumb2
                {
                  OFFSET -3.37035 -0.52449 3.41376
                  CHANNELS 3 Zrotation Xrotation Yrotation
                  End Site
                  {
                    OFFSET -1.78271 -1.18214 1.43049
                  }
                }
              }
              JOINT rIndex1
              {
                OFFSET -7.75947 0.938293 5.60832
                CHANNELS 3 Zrotation Xrotation Yrotation
                JOINT rIndex2
                {
                  OFFSET -2.54057 -0.884171 1.56538
                  CHANNELS 3 Zrotation Xrotation Yrotation
                  End Site
                  {
                    OFFSET -1.62519 -0.234802 1.16502
                  }
                }
              }
              JOINT rMid1
              {
                OFFSET -8.24714 1.18213 3.41376
                CHANNELS 3 Zrotation Xrotation Yrotation
                JOINT rMid2
                {
                  OFFSET -3.10165 -0.590103 1.0647
                  CHANNELS 3 Zrotation Xrotation Yrotation
                  End Site
                  {
                    OFFSET -2.48547 -0.328903 0.83742
                  }
                }
              }
              JOINT rRing1
              {
                OFFSET -8.82822 0.546677 1.51678
                CHANNELS 3 Zrotation Xrotation Yrotation
                JOINT rRing2
                {
                  OFFSET -2.60934 -0.819778 -0.0198488
                  CHANNELS 3 Zrotation Xrotation Yrotation
                  End Site
                  {
                    OFFSET -2.33842 -0.294052 0.168128
                  }
                }
              }
              JOINT rPinky1
              {
                OFFSET -8.27202 -0.0477905 -0.4584
                CHANNELS 3 Zrotation Xrotation Yrotation
                JOINT rPinky2
                {
                  OFFSET -1.82734 -0.647385 -0.700984
                  CHANNELS 3 Zrotation Xrotation Yrotation
                  End Site
                  {
                    OFFSET -1.69225 -0.51767 -0.607171
                  }
                }
              }
            }
          }
        }
      }
      JOINT lCollar
      {
        OFFSET 2.68224 19.2634 -4.8768
        CHANNELS 3 Zrotation Xrotation Yrotation
        JOINT lShldr
        {
          OFFSET 8.77824 -1.95073 1.46304
          CHANNELS 3 Zrotation Xrotation Yrotation
          JOINT lForeArm
          {
            OFFSET 28.1742 -1.7115 0.48768
            CHANNELS 3 Zrotation Xrotation Yrotation
            JOINT lHand
            {
              OFFSET 22.5879 0.773209 7.07136
              CHANNELS 3 Zrotation Xrotation Yrotation
              JOINT lThumb1
              {
                OFFSET 1.2192 -0.487915 3.41376
                CHANNELS 3 Zrotation Xrotation Yrotation
                JOINT lThumb2
                {
                  OFFSET 3.37035 -0.52449 3.41376
                  CHANNELS 3 Zrotation Xrotation Yrotation
                  End Site
                  {
                    OFFSET 1.78271 -1.18214 1.43049
                  }
                }
              }
              JOINT lIndex1
              {
                OFFSET 7.75947 0.938293 5.60832
                CHANNELS 3 Zrotation Xrotation Yrotation
                JOINT lIndex2
                {
                  OFFSET 2.54057 -0.884171 1.56538
                  CHANNELS 3 Zrotation Xrotation Yrotation
                  End Site
                  {
                    OFFSET 1.62519 -0.234802 1.16502
                  }
                }
              }
              JOINT lMid1
              {
                OFFSET 8.24714 1.18213 3.41376
                CHANNELS 3 Zrotation Xrotation Yrotation
                JOINT lMid2
                {
                  OFFSET 3.10165 -0.590103 1.0647
                  CHANNELS 3 Zrotation Xrotation Yrotation
                  End Site
                  {
                    OFFSET 2.48547 -0.328903 0.83742
                  }
                }
              }
              JOINT lRing1
              {
                OFFSET 8.82822 0.546677 1.51678
                CHANNELS 3 Zrotation Xrotation Yrotation
                JOINT lRing2
                {
                  OFFSET 2.60934 -0.819778 -0.0198488
                  CHANNELS 3 Zrotation Xrotation Yrotation
                  End Site
                  {
                    OFFSET 2.33842 -0.294052 0.168128
                  }
                }
              }
              JOINT lPinky1
              {
                OFFSET 8.27202 -0.0477905 -0.4584
                CHANNELS 3 Zrotation Xrotation Yrotation
                JOINT lPinky2
                {
                  OFFSET 1.82734 -0.647385 -0.700984
                  CHANNELS 3 Zrotation Xrotation Yrotation
                  End Site
                  {
                    OFFSET 1.69225 -0.51767 -0.607171
                  }
                }
              }
            }
          }
        }
      }
    }
  }
  JOINT rButtock
  {
    OFFSET -8.77824 4.35084 1.2192
    CHANNELS 3 Zrotation Xrotation Yrotation
    JOINT rThigh
    {
      OFFSET 0 -1.70687 -2.19456
      CHANNELS 3 Zrotation Xrotation Yrotation
      JOINT rShin
      {
        OFFSET 0 -36.8199 0.73152
        CHANNELS 3 Zrotation Xrotation Yrotation
        JOINT rFoot
        {
          OFFSET 0.73152 -45.1104 -5.12064
          CHANNELS 3 Zrotation Xrotation Yrotation
          End Site
          {
            OFFSET -1.1221 -3.69964 12.103
          }
        }
      }
    }
  }
  JOINT lButtock
  {
    OFFSET 8.77824 4.35084 1.2192
    CHANNELS 3 Zrotation Xrotation Yrotation
    JOINT lThigh
    {
      OFFSET 0 -1.70687 -2.19456
      CHANNELS 3 Zrotation Xrotation Yrotation
      JOINT lShin
      {
        OFFSET 0 -36.8199 0.73152
        CHANNELS 3 Zrotation Xrotation Yrotation
        JOINT lFoot
        {
          OFFSET -0.73152 -45.1104 -5.12064
          CHANNELS 3 Zrotation Xrotation Yrotation
          End Site
          {
            OFFSET 1.1221 -3.69964 12.103
          }
        }
      }
    }
  }
}
MOTION
Frames:	8
Frame Time:	0.00833333
0.271634 -99.9999 4.89702 0.0 0.0 0.0 -1.24104 -0.00398346 -0.0340661 -0.342363 -0.00249927 -0.0593046 1.23628e-15 -7.95139e-16 1.11816e-16 3.42282e-15 3.18055e-15 2.98177e-16 -0.0 0.0 0.0 -0.0 0.0 0.0 7.93715e-16 -2.13538e-17 2.48481e-16 1.46841e-14 9.31803e-17 1.78906e-15 2.2244e-13 -8.50798e-14 2.22639e-14 2.61729e-12 -1.68967e-14 1.94014e-13 6.16749e-12 -2.30579e-13 4.67542e-13 1.06553e-11 -4.0075e-13 8.27739e-13 6.17346e-12 -2.29e-13 4.67542e-13 7.73091 5.47488 0.417314 6.16719e-12 -2.3059e-13 4.80264e-13 2.90554 0.965183 0.102902 6.17151e-12 -2.30292e-13 4.81854e-13 10.2786 0.731801 0.0259123 6.16332e-12 -2.29398e-13 4.99347e-13 2.22167 -0.733487 -0.20892 6.97211e-16 -2.01891e-17 -1.49089e-16 1.07679e-14 8.07563e-17 3.97569e-16 2.31634e-13 5.38706e-14 1.27222e-14 2.6143e-12 -1.50033e-13 2.29e-13 6.18589e-12 -2.17527e-13 4.86625e-13 1.06982e-11 -3.72125e-13 8.45232e-13 6.17783e-12 -2.16278e-13 4.99347e-13 -7.73091 5.47488 -0.417314 6.18643e-12 -2.18067e-13 4.83444e-13 -2.90554 0.965183 -0.102902 6.17397e-12 -2.16775e-13 4.86625e-13 -10.2786 0.731801 -0.0259123 6.19274e-12 -2.16278e-13 4.77083e-13 -2.22167 -0.733487 0.20892 -2.03217e-16 0.0 -3.88251e-19 -0.460031 -1.92098 -0.00942353 -0.00911036 -2.07858 -0.0751521 -0.480906 3.99702 0.135685 2.03217e-16 0.0 3.88251e-19 -1.44351 -5.97027 0.129972 -0.0012212 5.25638 -0.0450197 0.5144 0.711426 -0.0730759
-0.427427 -114.117 4.87605 0.0 0.0 0.0 -1.03207 0.162035 -0.0325946 -0.338061 0.33094 -0.0576763 6.07282e-16 4.375 8.87707e-17 -2.84579e-11 -8.75 -8.70644e-11 -0.0 0.0 0.0 -0.0 0.0 0.0 4.47288e-16 1.1803e-15 2.48481e-16 -2.1875 1.29107e-09 7.13228e-11 1.54523e-13 9.29732e-13 7.44449e-14 1.79288e-14 4.74918e-12 8.86281e-13 3.45613e-13 1.23045e-11 2.0808e-12 5.83893e-13 2.12448e-11 3.60725e-12 3.50712e-13 1.23056e-11 2.0808e-12 7.73091 5.47488 0.417314 3.45184e-13 1.23043e-11 2.09179e-12 2.90554 0.965183 0.102902 3.49446e-13 1.23047e-11 2.09207e-12 10.2786 0.731801 0.0259123 3.41498e-13 1.23058e-11 2.10652e-12 2.22167 -0.733487 -0.20892 3.64179e-16 1.18125e-15 -1.62677e-16 2.1875 1.29107e-09 -7.13212e-11 -2.67979e-14 9.28935e-13 -5.07646e-14 1.31496e-12 4.53706e-12 -6.18071e-13 2.79402e-12 1.18504e-11 -1.48234e-12 4.83501e-12 2.04672e-11 -2.55414e-12 2.78661e-12 1.18513e-11 -1.46962e-12 -7.73091 5.47488 -0.417314 2.79449e-12 1.18498e-11 -1.48552e-12 -2.90554 0.965183 -0.102902 2.78298e-12 1.1851e-11 -1.48212e-12 -10.2786 0.731801 -0.0259123 2.79962e-12 1.18522e-11 -1.49188e-12 -2.22167 -0.733487 0.20892 -2.03217e-16 0.0 -3.88251e-19 -13.0049 -2.01274 0.0850158 0.0328309 -2.08425 0.295941 6.53331 3.67769 -0.847872 2.03217e-16 0.0 3.88251e-19 11.7614 -4.97144 -0.0088109 -0.00984182 3.29493 -0.38986 -6.71992 1.2427 0.917539
-0.427427 -114.117 4.87605 0.0 0.0 0.0 -0.811155 0.33754 -0.0310393 -0.333534 0.683433 -0.0559569 -5.38404e-17 9.0 6.46722e-17 -8.88168e-11 -18.0 -1.8613e-10 -0.0 0.0 0.0 -0.0 0.0 0.0 8.10639e-17 2.45062e-15 2.48481e-16 -4.5 2.65591e-09 1.46719e-10 8.27255e-14 2.00253e-12 1.29608e-13 -2.72997e-12 9.7876e-12 1.61811e-12 -5.80895e-12 2.55558e-11 3.78625e-12 -1.0063e-11 4.41272e-11 6.54558e-12 -5.80476e-12 2.55565e-11 3.78625e-12 7.73091 5.47488 0.417314 -5.80951e-12 2.55555e-11 3.7954e-12 2.90554 0.965183 0.102902 -5.8053e-12 2.5556e-11 3.7943e-12 10.2786 0.731801 0.0259123 -5.813e-12 2.55572e-11 3.80553e-12 2.22167 -0.733487 -0.20892 1.2116e-17 2.45135e-15 -1.77043e-16 4.5 2.65591e-09 -1.46718e-10 -2.99997e-13 1.854e-12 -1.17879e-13 -5.86313e-14 9.49198e-12 -1.51355e-12 -7.91679e-13 2.4608e-11 -3.56381e-12 -1.36322e-12 4.24974e-11 -6.14776e-12 -7.98394e-13 2.46085e-11 -3.55109e-12 -7.73091 5.47488 -0.417314 -7.91278e-13 2.46073e-11 -3.56699e-12 -2.90554 0.965183 -0.102902 -8.01779e-13 2.46084e-11 -3.56336e-12 -10.2786 0.731801 -0.0259123 -7.87398e-13 2.46103e-11 -3.57335e-12 -2.22167 -0.733487 0.20892 -2.03217e-16 0.0 -3.88251e-19 -26.2663 -2.10972 0.184863 0.0772486 -2.09014 0.688243 13.9364 3.33912 -1.8869 2.03217e-16 0.0 3.88251e-19 25.7261 -3.91549 -0.155072 -0.0446291 1.22144 -0.753451 -14.3876 1.80359 1.96528
-0.427427 -114.117 4.87605 0.0 0.0 0.0 -0.614135 0.494071 -0.0296523 -0.329514 0.997819 -0.054425 -6.4016e-16 13.125 4.30274e-17 -1.72954e-10 -26.25 -2.87838e-10 -0.0 0.0 0.0 -0.0 0.0 0.0 -2.45568e-16 3.5836e-15 2.48481e-16 -6.5625 3.8732e-09 2.13965e-10 1.86896e-14 2.95935e-12 1.78807e-13 -5.1808e-12 1.42813e-11 2.27082e-12 -1.12981e-11 3.73746e-11 5.30733e-12 -1.95588e-11 6.45359e-11 9.16626e-12 -1.12948e-11 3.73749e-11 5.30733e-12 7.73091 5.47488 0.417314 -1.12988e-11 3.73741e-11 5.31483e-12 2.90554 0.965183 0.102902 -1.12947e-11 3.73747e-11 5.31251e-12 10.2786 0.731801 0.0259123 -1.13021e-11 3.73761e-11 5.32087e-12 2.22167 -0.733487 -0.20892 -3.01886e-16 3.58413e-15 -1.89855e-16 6.5625 3.8732e-09 -2.13964e-10 -5.43661e-13 2.67906e-12 -1.77738e-13 -1.28373e-12 1.39112e-11 -2.31221e-12 -3.98973e-12 3.59863e-11 -5.42026e-12 -6.89136e-12 6.21459e-11 -9.35289e-12 -3.99583e-12 3.59866e-11 -5.40754e-12 -7.73091 5.47488 -0.417314 -3.98939e-12 3.59856e-11 -5.42344e-12 -2.90554 0.965183 -0.102902 -3.999e-12 3.59866e-11 -5.41961e-12 -10.2786 0.731801 -0.0259123 -3.98663e-12 3.59892e-11 -5.4298e-12 -2.22167 -0.733487 0.20892 -2.03217e-16 0.0 -3.88251e-19 -38.0938 -2.19622 0.273928 0.116933 -2.09532 1.03814 20.5288 3.03656 -2.81304 2.03217e-16 0.0 3.88251e-19 38.1857 -2.97369 -0.285251 -0.0978683 -0.627644 -1.07805 -21.2437 2.30276 2.90045
-0.427427 -114.117 4.87605 0.0 0.0 0.0 -0.476823 0.603169 -0.0286858 -0.326722 1.21694 -0.0533581 -1.0469e-15 16.0 2.76606e-17 -2.52294e-10 -32.0 -3.7109e-10 -0.0 0.0 0.0 -0.0 0.0 0.0 -4.73221e-16 4.37326e-15 2.48481e-16 -8.0 4.72161e-09 2.60833e-10 -2.59414e-14 3.62623e-12 2.13097e-13 -6.88895e-12 1.74133e-11 2.72574e-12 -1.5124e-11 4.56119e-11 6.36747e-12 -2.61772e-11 7.87601e-11 1.09928e-11 -1.51212e-11 4.56119e-11 6.36747e-12 7.73091 5.47488 0.417314 -1.51247e-11 4.56113e-11 6.37383e-12 2.90554 0.965183 0.102902 -1.51206e-11 4.5612e-11 6.37065e-12 10.2786 0.731801 0.0259123 -1.51279e-11 4.56135e-11 6.37701e-12 2.22167 -0.733487 -0.20892 -5.20736e-16 4.37365e-15 -1.98785e-16 8.0 4.72161e-09 -2.60833e-10 -7.13488e-13 3.25411e-12 -2.19458e-13 -2.13758e-12 1.69913e-11 -2.86886e-12 -6.21868e-12 4.39167e-11 -6.71415e-12 -1.07443e-11 7.58403e-11 -1.15868e-11 -6.22435e-12 4.39167e-11 -6.70143e-12 -7.73091 5.47488 -0.417314 -6.21838e-12 4.39159e-11 -6.71733e-12 -2.90554 0.965183 -0.102902 -6.22736e-12 4.39169e-11 -6.71336e-12 -10.2786 0.731801 -0.0259123 -6.21639e-12 4.39199e-11 -6.72369e-12 -2.22167 -0.733487 0.20892 -2.03217e-16 0.0 -3.88251e-19 -46.337 -2.2565 0.336009 0.14463 -2.09888 1.282 25.1177 2.82548 -3.45827 2.03217e-16 0.0 3.88251e-19 46.8722 -2.31729 -0.375889 -0.147381 -1.91617 -1.30503 -26.0318 2.64984 3.55274
-0.427427 -114.117 4.87605 0.0 0.0 0.0 -0.423093 0.645859 -0.0283075 -0.325632 1.30268 -0.0529408 -1.20562e-15 17.125 2.15521e-17 -2.88898e-10 -34.25 -4.07493e-10 -0.0 0.0 0.0 -0.0 0.0 0.0 -5.62302e-16 4.68226e-15 2.48481e-16 -8.5625 5.0536e-09 2.79173e-10 -4.34057e-14 3.88718e-12 2.26515e-13 -7.55736e-12 1.86389e-11 2.90375e-12 -1.6621e-11 4.88352e-11 6.78231e-12 -2.87669e-11 8.43261e-11 1.17075e-11 -1.66184e-11 4.88351e-11 6.78231e-12 7.73091 5.47488 0.417314 -1.66218e-11 4.88346e-11 6.78822e-12 2.90554 0.965183 0.102902 -1.66177e-11 4.88353e-11 6.78471e-12 10.2786 0.731801 0.0259123 -1.66249e-11 4.88369e-11 6.79029e-12 2.22167 -0.733487 -0.20892 -6.06373e-16 4.68259e-15 -2.02279e-16 8.5625 5.0536e-09 -2.79173e-10 -7.79942e-13 3.47912e-12 -2.35783e-13 -2.4717e-12 1.81966e-11 -3.08668e-12 -7.09088e-12 4.70199e-11 -7.22046e-12 -1.2252e-11 8.1199e-11 -1.24609e-11 -7.09637e-12 4.70198e-11 -7.20773e-12 -7.73091 5.47488 -0.417314 -7.0906e-12 4.70191e-11 -7.22364e-12 -2.90554 0.965183 -0.102902 -7.09933e-12 4.70201e-11 -7.2196e-12 -10.2786 0.731801 -0.0259123 -7.08891e-12 4.70232e-11 -7.23e-12 -2.22167 -0.733487 0.20892 -2.03217e-16 0.0 -3.88251e-19 -49.5626 -2.28009 0.360303 0.155476 -2.10026 1.37743 26.9121 2.74286 -3.7107 2.03217e-16 0.0 3.88251e-19 50.2719 -2.06044 -0.411344 -0.169539 -2.4203 -1.3941 -27.9076 2.78544 3.80812
-0.427427 -114.117 4.87605 0.0 0.0 0.0 -0.429063 0.641116 -0.0283496 -0.325753 1.29315 -0.0529872 -1.188e-15 17.0 2.22339e-17 -2.84661e-10 -34.0 -4.03324e-10 -0.0 0.0 0.0 -0.0 0.0 0.0 -5.52404e-16 4.64793e-15 2.48481e-16 -8.5 5.01671e-09 2.77135e-10 -4.14652e-14 3.85819e-12 2.25024e-13 -7.48309e-12 1.85027e-11 2.88397e-12 -1.64547e-11 4.84771e-11 6.73622e-12 -2.84792e-11 8.37076e-11 1.16281e-11 -1.64521e-11 4.8477e-11 6.73622e-12 7.73091 5.47488 0.417314 -1.64555e-11 4.84765e-11 6.74218e-12 2.90554 0.965183 0.102902 -1.64514e-11 4.84772e-11 6.7387e-12 10.2786 0.731801 0.0259123 -1.64586e-11 4.84787e-11 6.74437e-12 2.22167 -0.733487 -0.20892 -5.96858e-16 4.64827e-15 -2.01891e-16 8.5 5.01671e-09 -2.77135e-10 -7.72558e-13 3.45412e-12 -2.3397e-13 -2.43457e-12 1.80627e-11 -3.06248e-12 -6.99397e-12 4.66751e-11 -7.1642e-12 -1.20845e-11 8.06036e-11 -1.23638e-11 -6.99948e-12 4.6675e-11 -7.15148e-12 -7.73091 5.47488 -0.417314 -6.99368e-12 4.66743e-11 -7.16738e-12 -2.90554 0.965183 -0.102902 -7.00244e-12 4.66753e-11 -7.16335e-12 -10.2786 0.731801 -0.0259123 -6.99197e-12 4.66784e-11 -7.17374e-12 -2.22167 -0.733487 0.20892 -2.03217e-16 0.0 -3.88251e-19 -49.2042 -2.27747 0.357604 0.154271 -2.10011 1.36683 26.7128 2.75204 -3.68265 2.03217e-16 0.0 3.88251e-19 49.8941 -2.08898 -0.407405 -0.167 -2.36429 -1.38419 -27.6991 2.77038 3.77974
-0.427427 -114.117 4.87605 0.0 0.0 0.0 -0.458913 0.617399 -0.0285597 -0.326359 1.24552 -0.053219 -1.09984e-15 16.375 2.56312e-17 -2.64118e-10 -32.75 -3.82952e-10 -0.0 0.0 0.0 -0.0 0.0 0.0 -5.02914e-16 4.47626e-15 2.48481e-16 -8.1875 4.83227e-09 2.66946e-10 -3.17628e-14 3.71321e-12 2.1757e-13 -7.11175e-12 1.78218e-11 2.78507e-12 -1.5623e-11 4.66864e-11 6.50575e-12 -2.70404e-11 8.06154e-11 1.1231e-11 -1.56202e-11 4.66863e-11 6.50575e-12 7.73091 5.47488 0.417314 -1.56238e-11 4.66858e-11 6.51196e-12 2.90554 0.965183 0.102902 -1.56196e-11 4.66865e-11 6.50867e-12 10.2786 0.731801 0.0259123 -1.56269e-11 4.6688e-11 6.51477e-12 2.22167 -0.733487 -0.20892 -5.49282e-16 4.47663e-15 -1.99949e-16 8.1875 4.83227e-09 -2.66946e-10 -7.35639e-13 3.32911e-12 -2.249e-13 -2.24895e-12 1.73931e-11 -2.94147e-12 -6.50941e-12 4.49511e-11 -6.88292e-12 -1.12469e-11 7.76266e-11 -1.18781e-11 -6.51502e-12 4.49511e-11 -6.8702e-12 -7.73091 5.47488 -0.417314 -6.50912e-12 4.49503e-11 -6.8861e-12 -2.90554 0.965183 -0.102902 -6.51801e-12 4.49513e-11 -6.88211e-12 -10.2786 0.731801 -0.0259123 -6.50723e-12 4.49543e-11 -6.89246e-12 -2.22167 -0.733487 0.20892 -2.03217e-16 0.0 -3.88251e-19 -47.4122 -2.26437 0.344107 0.148245 -2.09934 1.31381 25.7159 2.79794 -3.54242 2.03217e-16 0.0 3.88251e-19 48.0054 -2.23167 -0.387708 -0.154593 -2.08422 -1.3347 -26.6569 2.69506 3.63786
